<?xml version="1.0" encoding="UTF-8"?>
<svg xmlns="http://www.w3.org/2000/svg" xmlns:xlink="http://www.w3.org/1999/xlink" version="1.1" id="Layer_1" x="0px" y="0px" width="895.854px" height="139.146px" viewBox="0 0 895.854 139.146" style="enable-background:new 0 0 895.854 139.146;" xml:space="preserve">
<path d="M20,43.22v95.32H0V0.15c4.18,0,8.4-0.45,12.43,0.21c1.87,0.3,3.64,2.59,5,4.33c13.413,17.147,26.773,34.337,40.08,51.57  c9.447,12.18,18.907,24.363,28.38,36.55c1,1.28,2.11,2.47,4.11,4.8v-97h20.16v138.38c-4.24,0-8.46,0.46-12.49-0.2  c-1.89-0.3-3.71-2.53-5.07-4.27c-17.813-22.833-35.577-45.7-53.29-68.6c-5.96-7.673-11.923-15.34-17.89-23L20,43.22z"></path>
<path d="M782.45,138.34v-19.56h7.17c12,0,24.09,0.13,36.14,0c25.41-0.35,45.28-17.6,49.15-42.5c4.24-27.23-16.86-53.87-44.49-55.67  c-9.21-0.6-18.5-0.1-28.43-0.1v58.83h-19.3c-1.38-4.71-1.94-62-0.72-78.85c1.71-0.12,3.51-0.35,5.32-0.35c13.1,0,26.21-0.1,39.31,0  c37.772,0.343,68.436,30.635,69.24,68.4c0.72,35.69-27.13,67.21-62.73,69.86c-16,1.18-32.09,0.49-48.14,0.6  C784.106,138.887,783.259,138.665,782.45,138.34z"></path>
<path d="M252.91,0.25h19.71c0.12,2.42,0.31,4.63,0.32,6.85c0,24.09-0.13,48.18,0.06,72.27c0.15,18.08,11.43,32.36,28.84,37.16  c22.36,6.16,45.23-6,50.67-27.15c1.083-4.516,1.621-9.146,1.6-13.79c0.15-22.6,0.07-45.22,0.07-67.83v-7.3h19.73  c0.274,1.575,0.455,3.164,0.54,4.76c0,23.88,0.24,47.76,0,71.63c-0.41,36.66-30,64-66.56,61.94c-25-1.4-48.15-21.77-53.68-47.46  c-0.909-4.12-1.398-8.321-1.46-12.54c-0.13-24.73-0.13-49.45-0.13-74.17C252.62,3.34,252.8,2.15,252.91,0.25z"></path>
<path d="M517.36,0.28h19.93v7c0,23.88-0.12,47.76,0,71.63c0.13,18.39,11.53,32.9,29.11,37.61c22.19,5.95,44.72-6,50.28-26.9  c1.168-4.71,1.746-9.547,1.72-14.4c0.17-22.61,0.08-45.22,0.08-67.83V0.26h19.83c0.17,1.88,0.44,3.51,0.45,5.14  c0,23.67,0.16,47.33,0,71c-0.24,30.15-20.55,55-49.2,61.1c-34.59,7.32-64.24-16.13-71-45.91c-0.978-4.326-1.491-8.745-1.53-13.18  c-0.14-24.51-0.07-49-0.05-73.53C517.01,3.47,517.22,2.04,517.36,0.28z"></path>
</svg>
